<svg id="visual" viewBox="0 0 900 600" width="900" height="600" xmlns="http://www.w3.org/2000/svg" xmlns:xlink="http://www.w3.org/1999/xlink" version="1.1"><rect x="0" y="0" width="900" height="600" fill="#fff"></rect><defs><linearGradient id="grad1_0" x1="33.3%" y1="100%" x2="100%" y2="0%"><stop offset="20%" stop-color="#ffffff" stop-opacity="1"></stop><stop offset="80%" stop-color="#ffffff" stop-opacity="1"></stop></linearGradient></defs><defs><linearGradient id="grad2_0" x1="0%" y1="100%" x2="66.7%" y2="0%"><stop offset="20%" stop-color="#ffffff" stop-opacity="1"></stop><stop offset="80%" stop-color="#ffffff" stop-opacity="1"></stop></linearGradient></defs><g transform="translate(900, 600)"><path d="M-351.5 0C-347.6 -70.6 -343.7 -141.2 -304.4 -175.8C-265.2 -210.3 -190.6 -208.8 -134 -232.1C-77.4 -255.4 -38.7 -303.5 0 -351.5L0 0Z" fill="#FBAE3C"></path></g><g transform="translate(0, 0)"><path d="M351.5 0C344.7 65.5 337.8 131.1 304.4 175.8C271.1 220.5 211.2 244.4 156 270.2C100.8 296 50.4 323.8 0 351.5L0 0Z" fill="#FBAE3C"></path></g></svg>
